<svg width="34" height="32" viewBox="0 0 34 32" fill="none" xmlns="http://www.w3.org/2000/svg">
<path fill-rule="evenodd" clip-rule="evenodd" d="M0.382324 12.625C0.382324 17.5331 3.29997 21.7738 7.52938 23.7745V21.1753C4.6827 19.3921 2.76468 16.2578 2.76468 12.625C2.76468 6.95552 7.43623 2.5 13.0187 2.5C17.7543 2.5 21.8344 5.7063 22.9633 10.14L22.9669 10.1387C23.1263 10.7538 23.228 11.3916 23.2658 12.0462C24.008 11.6948 24.8338 11.5 25.694 11.5C28.7386 11.5 31.3529 13.9408 31.3529 17.125C31.3529 19.0493 30.3981 20.7021 28.9706 21.7088V24.3187C31.7785 23.0903 33.7353 20.3314 33.7353 17.125C33.7353 12.7758 30.1351 9.25001 25.694 9.25001C25.5226 9.25001 25.3525 9.25526 25.1838 9.2656C23.689 4.06349 18.8086 0.25 13.0187 0.25C6.03981 0.25 0.382324 5.79048 0.382324 12.625ZM20.2976 20.7279C20.5473 20.8642 20.9386 20.8047 21.1387 20.4773C21.2483 20.298 21.3891 19.9256 21.4911 19.3193C21.5318 19.0776 21.5624 18.8227 21.5846 18.561C20.8889 19.0259 20.3618 19.497 20.1067 19.9144C19.9067 20.2418 20.0478 20.5917 20.2976 20.7279ZM21.5786 15.9119C22.8202 15.255 23.8714 14.8797 23.8714 14.8797C23.8714 14.8797 24.0089 15.9361 24.0143 17.2672C24.0202 18.7254 23.8675 20.5131 23.2017 21.6026C22.3644 22.9727 20.531 23.4536 19.1067 22.6767C17.6824 21.8997 17.2065 20.1592 18.0437 18.7891C18.7744 17.5935 20.2805 16.5988 21.5786 15.9119ZM12.4324 21.8728C12.6822 22.0091 13.0735 21.9496 13.2735 21.6222C13.3831 21.4429 13.5239 21.0705 13.626 20.4643C13.6666 20.2225 13.6973 19.9676 13.7195 19.7059C13.0238 20.1708 12.4966 20.6419 12.2416 21.0593C12.0415 21.3867 12.1826 21.7366 12.4324 21.8728ZM13.7134 17.0568C14.955 16.3999 16.0063 16.0246 16.0063 16.0246C16.0063 16.0246 16.1438 17.081 16.1491 18.4121C16.155 19.8703 16.0023 21.658 15.3365 22.7475C14.4993 24.1176 12.6659 24.5985 11.2415 23.8216C9.81722 23.0446 9.34132 21.3041 10.1786 19.934C10.9092 18.7384 12.4154 17.7437 13.7134 17.0568ZM23.8239 27.377C23.6238 27.7044 23.2325 27.7638 22.9827 27.6276C22.7329 27.4913 22.5918 27.1415 22.7919 26.8141C23.047 26.3967 23.5741 25.9255 24.2698 25.4606C24.2476 25.7224 24.2169 25.9773 24.1763 26.219C24.0743 26.8253 23.9334 27.1977 23.8239 27.377ZM26.5566 21.7793C26.5566 21.7793 25.5054 22.1546 24.2638 22.8116C22.9657 23.4984 21.4595 24.4932 20.7289 25.6888C19.8916 27.0589 20.3675 28.7994 21.7919 29.5763C23.2162 30.3532 25.0496 29.8724 25.8868 28.5023C26.5526 27.4128 26.7053 25.625 26.6995 24.1669C26.6941 22.8358 26.5566 21.7793 26.5566 21.7793ZM14.98 29.4297C15.2298 29.566 15.6211 29.5065 15.8211 29.1791C15.9307 28.9998 16.0716 28.6274 16.1736 28.0211C16.2142 27.7794 16.2449 27.5245 16.2671 27.2628C15.5714 27.7276 15.0443 28.1988 14.7892 28.6162C14.5891 28.9436 14.7302 29.2935 14.98 29.4297ZM16.261 24.6137C17.5027 23.9567 18.5539 23.5815 18.5539 23.5815C18.5539 23.5815 18.6914 24.6379 18.6967 25.969C18.7026 27.4272 18.5499 29.2149 17.8841 30.3044C17.0469 31.6745 15.2135 32.1554 13.7892 31.3784C12.3648 30.6015 11.8889 28.861 12.7262 27.4909C13.4568 26.2953 14.963 25.3006 16.261 24.6137Z" fill="url(#paint0_linear_141_2370)"/>
<defs>
<linearGradient id="paint0_linear_141_2370" x1="17.0588" y1="0.25" x2="17.0588" y2="31.75" gradientUnits="userSpaceOnUse">
<stop stop-color="#95B6F6"/>
<stop offset="1" stop-color="#5193DE"/>
</linearGradient>
</defs>
</svg>
