<svg width="28" height="28" viewBox="0 0 28 28" fill="none" xmlns="http://www.w3.org/2000/svg">
<path fill-rule="evenodd" clip-rule="evenodd" d="M13 3V0H15V3H13ZM20.8619 19.8239C21.573 20.6875 22 21.7938 22 22.9999C22 25.7613 19.7614 27.9999 17 27.9999L16.9634 27.9998H9.53875V27.9997L9.50001 27.9998C5.35787 27.9998 2 24.6419 2 20.4998C2 18.0402 3.18397 15.8571 5.01308 14.4894C5.0044 14.3274 5 14.1642 5 14C5 9.02944 9.02944 5 14 5C18.9706 5 23 9.02944 23 14C23 16.221 22.1955 18.2542 20.8619 19.8239ZM19.3082 18.5634C18.6177 18.2034 17.8326 17.9999 17 17.9999C16.1545 17.9999 15.358 18.2097 14.6598 18.5802C14.8825 19.1779 15.0042 19.8247 15.0042 20.5C15.0042 20.5891 15.0021 20.6776 14.9979 20.7657C15.5289 20.2895 16.2306 19.9999 17 19.9999C18.6569 19.9999 20 21.343 20 22.9999C20 24.6567 18.6569 25.9999 17 25.9999V25.9998H16.9716L16.9332 25.9992H9.58331C9.55559 25.9996 9.52782 25.9998 9.50001 25.9998C6.46244 25.9998 4 23.5373 4 20.4998C4 17.4622 6.46244 14.9998 9.50001 14.9998C11.8631 14.9998 13.878 16.49 14.6564 18.5819C15.2385 18.2725 15.889 18.0748 16.5794 18.0173C15.5548 15.0951 12.7721 12.9998 9.50001 12.9998C8.63232 12.9998 7.79904 13.1471 7.02384 13.4181C7.31956 9.82438 10.3299 7 14 7C17.866 7 21 10.134 21 14C21 15.7434 20.3626 17.338 19.3082 18.5634ZM28 13H25V15H28V13ZM23.0263 7.63397L25.6243 6.13397L26.6243 7.86603L24.0263 9.36602L23.0263 7.63397ZM20.134 1.37573L18.634 3.97381L20.3661 4.97381L21.8661 2.37573L20.134 1.37573ZM7.63397 4.97381L6.13397 2.37573L7.86603 1.37573L9.36602 3.97381L7.63397 4.97381ZM1.37567 7.86603L3.97375 9.36602L4.97375 7.63397L2.37567 6.13397L1.37567 7.86603ZM0 13H3V15H0V13ZM23.0263 20.366L25.6244 21.866L26.6244 20.134L24.0263 18.634L23.0263 20.366Z" fill="white"/>
</svg>
