<svg width="28" height="28" viewBox="0 0 28 28" fill="none" xmlns="http://www.w3.org/2000/svg">
<path fill-rule="evenodd" clip-rule="evenodd" d="M15.6361 0V2.43513H17.6361V0H15.6361ZM28 10.3639H25.5649L25.5649 12.3639H28V10.3639ZM23.8687 6.03351L25.9775 4.81594L26.9775 6.54799L24.8687 7.76556L23.8687 6.03351ZM21.4521 1.02245L20.2345 3.13133L21.9666 4.13133L23.1841 2.02245L21.4521 1.02245ZM11.3056 4.13133L10.0881 2.02245L11.8201 1.02245L13.0377 3.13133L11.3056 4.13133ZM28 20.75C28 17.7235 26.2095 15.1301 23.6657 14.0442C23.981 13.2109 24.1536 12.3075 24.1536 11.3638C24.1536 7.17971 20.7617 3.78784 16.5776 3.78784C14.3591 3.78784 12.3633 4.74142 10.9778 6.26106C10.8194 6.25371 10.6601 6.25 10.5 6.25C4.70101 6.25 0 11.1189 0 17.125C0 23.1311 4.70101 28 10.5 28C10.5658 28 10.6315 27.9994 10.6971 27.9981V28H20.9949L21 28L21.0051 28H21.2414V27.9958C24.9956 27.864 28 24.6704 28 20.75ZM22.1536 11.3638C22.1536 12.1349 21.9971 12.8693 21.7141 13.5373C21.4793 13.5126 21.2411 13.5 21 13.5C20.8017 13.5 20.6053 13.5085 20.4111 13.5253C19.3046 10.257 16.7337 7.702 13.5134 6.7045C14.3927 6.12506 15.4458 5.78784 16.5776 5.78784C19.6571 5.78784 22.1536 8.28428 22.1536 11.3638ZM10.5 26L10.5411 25.9999V26L10.6971 26L20.9973 26H21L21.0043 26C23.6983 25.9976 26 23.7147 26 20.75C26 17.7838 23.6958 15.5 21 15.5C20.2698 15.5 19.5684 15.6675 18.9337 15.9708C18.8474 15.2839 18.685 14.6218 18.4555 13.9939L18.4577 13.993C17.2369 10.6095 14.0973 8.25 10.5 8.25C5.87115 8.25 2 12.1567 2 17.125C2 22.0933 5.87115 26 10.5 26Z" fill="white"/>
</svg>
