<svg width="36" height="36" viewBox="0 0 36 36" fill="none" xmlns="http://www.w3.org/2000/svg">
<path fill-rule="evenodd" clip-rule="evenodd" d="M16.75 4.25V0.5H19.25V4.25H16.75ZM23.7925 5.46726L25.6675 2.21967L27.8326 3.46967L25.9576 6.71726L23.7925 5.46726ZM18 26.75C22.8325 26.75 26.75 22.8325 26.75 18C26.75 13.1675 22.8325 9.25 18 9.25C13.1675 9.25 9.25 13.1675 9.25 18C9.25 22.8325 13.1675 26.75 18 26.75ZM18 29.25C24.2132 29.25 29.25 24.2132 29.25 18C29.25 11.7868 24.2132 6.75 18 6.75C11.7868 6.75 6.75 11.7868 6.75 18C6.75 24.2132 11.7868 29.25 18 29.25ZM31.75 16.75H35.5V19.25H31.75V16.75ZM32.5304 8.16747L29.2828 10.0425L30.5328 12.2075L33.7804 10.3325L32.5304 8.16747ZM8.16747 3.46967L10.0425 6.71726L12.2075 5.46726L10.3325 2.21967L8.16747 3.46967ZM5.46718 12.2075L2.21959 10.3325L3.46959 8.16747L6.71718 10.0425L5.46718 12.2075ZM16.75 31.75V35.5H19.25V31.75H16.75ZM4.25 16.75H0.5V19.25H4.25V16.75ZM2.21952 25.6675L5.46712 23.7925L6.71712 25.9575L3.46952 27.8325L2.21952 25.6675ZM10.0425 29.283L8.16754 32.5306L10.3326 33.7806L12.2076 30.533L10.0425 29.283ZM25.6675 33.7806L23.7925 30.533L25.9575 29.283L27.8325 32.5306L25.6675 33.7806ZM29.2829 25.9575L32.5305 27.8325L33.7805 25.6675L30.5329 23.7925L29.2829 25.9575Z" fill="url(#paint0_linear_141_744)"/>
<defs>
<linearGradient id="paint0_linear_141_744" x1="18" y1="0.5" x2="18" y2="35.5" gradientUnits="userSpaceOnUse">
<stop stop-color="#EFC977"/>
<stop offset="1" stop-color="#E07256"/>
</linearGradient>
</defs>
</svg>
