<svg width="28" height="22" viewBox="0 0 28 22" fill="none" xmlns="http://www.w3.org/2000/svg">
<path fill-rule="evenodd" clip-rule="evenodd" d="M10.5 20L10.5411 19.9999V20L10.6971 20L20.9973 20H21C21.0014 20 21.0028 20 21.0043 20C23.6983 19.9976 26 17.7147 26 14.75C26 11.7838 23.6958 9.5 21 9.5C20.2698 9.5 19.5684 9.66753 18.9337 9.97078C18.8474 9.28392 18.685 8.62182 18.4555 7.99386L18.4577 7.99298C17.2369 4.60946 14.0973 2.25 10.5 2.25C5.87115 2.25 2 6.15674 2 11.125C2 16.0933 5.87115 20 10.5 20ZM21.2414 21.9958C24.9956 21.864 28 18.6704 28 14.75C28 10.7459 24.866 7.5 21 7.5C20.8017 7.5 20.6053 7.50854 20.4111 7.52529C18.9766 3.28826 15.0809 0.25 10.5 0.25C4.70101 0.25 0 5.1189 0 11.125C0 17.1311 4.70101 22 10.5 22C10.5658 22 10.6315 21.9994 10.6971 21.9981V22H20.9949C20.9966 22 20.9983 22 21 22C21.0017 22 21.0034 22 21.0051 22H21.2414V21.9958Z" fill="url(#paint0_linear_20_1722)"/>
<defs>
<linearGradient id="paint0_linear_20_1722" x1="14" y1="0.25" x2="14" y2="22" gradientUnits="userSpaceOnUse">
<stop stop-color="#B2D4F7"/>
<stop offset="1" stop-color="#D9E2F3"/>
</linearGradient>
</defs>
</svg>
