<svg width="339" height="39" viewBox="0 0 339 39" fill="none" xmlns="http://www.w3.org/2000/svg">
<path d="M2.56367 33.5383C1.20416 33.7793 0.297401 35.0768 0.538382 36.4363C0.779364 37.7958 2.07683 38.7025 3.43635 38.4616L2.56367 33.5383ZM61.9865 25.5443L62.4228 28.0059C62.5223 27.9883 62.6207 27.9646 62.7174 27.9351L61.9865 25.5443ZM117.964 8.43077L117.69 5.94587C117.535 5.96296 117.382 5.99447 117.234 6.04L117.964 8.43077ZM282.969 12.431L283.345 9.95947C283.222 9.9406 283.096 9.93107 282.971 9.93096L282.969 12.431ZM226.969 12.381L226.532 14.8425L226.748 14.8808L226.967 14.881L226.969 12.381ZM171.457 2.52383L171.894 0.0623336L171.54 -0.000535122L171.182 0.0389335L171.457 2.52383ZM3.43635 38.4616L62.4228 28.0059L61.5501 23.0827L2.56367 33.5383L3.43635 38.4616ZM62.7174 27.9351L118.695 10.8215L117.234 6.04L61.2556 23.1535L62.7174 27.9351ZM226.967 14.881L282.967 14.931L282.971 9.93096L226.971 9.88102L226.967 14.881ZM282.592 14.9024L338.103 23.3585L338.856 18.4156L283.345 9.95947L282.592 14.9024ZM118.239 10.9157L171.731 5.00872L171.182 0.0389335L117.69 5.94587L118.239 10.9157ZM171.02 4.98532L226.532 14.8425L227.406 9.91952L171.894 0.0623336L171.02 4.98532Z" fill="#0086FF"/>
</svg>
