<svg width="35" height="32" viewBox="0 0 35 32" fill="none" xmlns="http://www.w3.org/2000/svg">
<path fill-rule="evenodd" clip-rule="evenodd" d="M13.4375 0.25V3.25H15.4375V0.25H13.4375ZM19.0499 19.5157C20.5134 18.2327 21.4375 16.3492 21.4375 14.25C21.4375 10.384 18.3035 7.25 14.4375 7.25C10.5715 7.25 7.4375 10.384 7.4375 14.25C7.4375 14.3918 7.44172 14.5326 7.45003 14.6723C6.76528 14.913 6.12599 15.2502 5.54851 15.6676C5.47545 15.2058 5.4375 14.7324 5.4375 14.25C5.4375 9.27944 9.46694 5.25 14.4375 5.25C19.4081 5.25 23.4375 9.27944 23.4375 14.25C23.4375 16.7185 22.4437 18.9549 20.8343 20.5809C20.3261 20.1103 19.72 19.7438 19.0499 19.5157ZM25.4375 13.25H28.4375V15.25H25.4375V13.25ZM26.0618 6.38397L23.4638 7.88397L24.4638 9.61602L27.0618 8.11603L26.0618 6.38397ZM19.0715 4.22381L20.5715 1.62573L22.3036 2.62573L20.8036 5.22381L19.0715 4.22381ZM6.57147 2.62573L8.07147 5.22381L9.80352 4.22381L8.30353 1.62573L6.57147 2.62573ZM4.41125 9.61602L1.81317 8.11603L2.81317 6.38397L5.41125 7.88397L4.41125 9.61602ZM3.4375 13.25H0.4375V15.25H3.4375V13.25ZM26.0619 22.116L23.4638 20.616L24.4638 18.884L27.0619 20.384L26.0619 22.116Z" fill="url(#paint0_linear_141_1194)"/>
<path fill-rule="evenodd" clip-rule="evenodd" d="M9.93751 26.2498C9.96532 26.2498 9.99309 26.2496 10.0208 26.2492H17.3707C17.3835 26.2494 17.3963 26.2496 17.4091 26.2498H17.4375V26.2499C17.4375 26.2499 17.4375 26.2499 17.4375 26.2499C19.0944 26.2499 20.4375 24.9067 20.4375 23.2499C20.4375 21.593 19.0944 20.2499 17.4375 20.2499C16.6681 20.2499 15.9664 20.5395 15.4354 21.0157C15.4396 20.9276 15.4417 20.8391 15.4417 20.75C15.4417 20.0747 15.32 19.4279 15.0973 18.8302C15.7955 18.4597 16.592 18.2499 17.4375 18.2499C20.1989 18.2499 22.4375 20.4885 22.4375 23.2499C22.4375 26.0113 20.1989 28.2499 17.4375 28.2499C17.4253 28.2499 17.4131 28.2498 17.4009 28.2498L9.97625 28.2498V28.2497C9.96335 28.2497 9.95043 28.2498 9.93751 28.2498C5.79537 28.2498 2.4375 24.8919 2.4375 20.7498C2.4375 16.6076 5.79537 13.2498 9.93751 13.2498C13.2096 13.2498 15.9923 15.3451 17.0169 18.2673C16.3265 18.3248 15.676 18.5225 15.0939 18.8319C14.3155 16.74 12.3006 15.2498 9.93751 15.2498C6.89994 15.2498 4.4375 17.7122 4.4375 20.7498C4.4375 23.7873 6.89994 26.2498 9.93751 26.2498Z" fill="url(#paint1_linear_141_1194)"/>
<defs>
<linearGradient id="paint0_linear_141_1194" x1="14.4375" y1="0.25" x2="14.4375" y2="22.116" gradientUnits="userSpaceOnUse">
<stop stop-color="#EFC977"/>
<stop offset="1" stop-color="#E07256"/>
</linearGradient>
<linearGradient id="paint1_linear_141_1194" x1="12.4375" y1="13.2498" x2="12.4375" y2="28.2499" gradientUnits="userSpaceOnUse">
<stop stop-color="#B2D4F7"/>
<stop offset="1" stop-color="#D9E2F3"/>
</linearGradient>
</defs>
</svg>
