<svg width="28" height="28" viewBox="0 0 28 28" fill="none" xmlns="http://www.w3.org/2000/svg">
<path fill-rule="evenodd" clip-rule="evenodd" d="M0 11C0 15.3628 2.44938 19.1323 6 20.9107V18.6003C3.61019 17.0152 2 14.2291 2 11C2 5.96046 5.92179 2 10.6083 2C14.5839 2 18.0091 4.85004 18.9569 8.79115L18.9599 8.78992C19.0937 9.33674 19.1791 9.90367 19.2108 10.4855C19.8339 10.1732 20.5272 10 21.2493 10C23.8053 10 26 12.1696 26 15C26 16.7105 25.1984 18.1797 24 19.0745V21.3944C26.3573 20.3025 28 17.8501 28 15C28 11.134 24.9776 8.00001 21.2493 8.00001C21.1054 8.00001 20.9626 8.00467 20.821 8.01387C19.5661 3.38976 15.469 0 10.6083 0C4.74949 0 0 4.92487 0 11ZM16.719 18.2026C16.9287 18.3237 17.2571 18.2708 17.4251 17.9798C17.5171 17.8204 17.6353 17.4894 17.721 16.9505C17.7551 16.7357 17.7808 16.5091 17.7995 16.2764C17.2154 16.6896 16.7729 17.1085 16.5588 17.4795C16.3908 17.7705 16.5093 18.0815 16.719 18.2026ZM17.7944 13.9217C18.8367 13.3377 19.7192 13.0042 19.7192 13.0042C19.7192 13.0042 19.8347 13.9432 19.8392 15.1264C19.8441 16.4226 19.7159 18.0116 19.157 18.9801C18.4541 20.198 16.915 20.6254 15.7192 19.9348C14.5235 19.2442 14.124 17.6971 14.8269 16.4792C15.4402 15.4164 16.7047 14.5323 17.7944 13.9217ZM10.1161 19.2203C10.3258 19.3414 10.6543 19.2885 10.8223 18.9975C10.9142 18.8381 11.0325 18.5071 11.1181 17.9682C11.1522 17.7534 11.178 17.5268 11.1966 17.2941C10.6126 17.7073 10.17 18.1262 9.95592 18.4972C9.78796 18.7882 9.90643 19.0992 10.1161 19.2203ZM11.1916 14.9394C12.2339 14.3554 13.1164 14.0218 13.1164 14.0218C13.1164 14.0218 13.2318 14.9609 13.2363 16.1441C13.2413 17.4402 13.1131 19.0293 12.5541 19.9978C11.8513 21.2157 10.3121 21.6431 9.11639 20.9525C7.92065 20.2619 7.52113 18.7148 8.22402 17.4969C8.83739 16.4341 10.1018 15.5499 11.1916 14.9394ZM19.6793 24.1129C19.5113 24.4039 19.1829 24.4567 18.9732 24.3356C18.7635 24.2145 18.645 23.9035 18.813 23.6125C19.0271 23.2415 19.4696 22.8227 20.0537 22.4095C20.0351 22.6421 20.0093 22.8687 19.9752 23.0836C19.8895 23.6225 19.7713 23.9535 19.6793 24.1129ZM21.9734 19.1372C21.9734 19.1372 21.0909 19.4708 20.0486 20.0548C18.9589 20.6653 17.6944 21.5495 17.0811 22.6122C16.3782 23.8301 16.7777 25.3772 17.9734 26.0678C19.1692 26.7584 20.7083 26.331 21.4112 25.1131C21.9701 24.1447 22.0983 22.5556 22.0934 21.2594C22.0889 20.0763 21.9734 19.1372 21.9734 19.1372ZM12.2549 25.9375C12.4645 26.0586 12.793 26.0058 12.961 25.7147C13.053 25.5554 13.1712 25.2244 13.2568 24.6855C13.291 24.4706 13.3167 24.244 13.3354 24.0113C12.7513 24.4246 12.3088 24.8434 12.0947 25.2144C11.9267 25.5054 12.0452 25.8164 12.2549 25.9375ZM13.3303 21.6566C14.3726 21.0727 15.2551 20.7391 15.2551 20.7391C15.2551 20.7391 15.3706 21.6781 15.3751 22.8613C15.38 24.1575 15.2518 25.7466 14.6929 26.715C13.99 27.9329 12.4509 28.3603 11.2551 27.6697C10.0594 26.9791 9.65986 25.432 10.3628 24.2141C10.9761 23.1514 12.2406 22.2672 13.3303 21.6566Z" fill="url(#paint0_linear_67_2121)"/>
<defs>
<linearGradient id="paint0_linear_67_2121" x1="14" y1="0" x2="14" y2="28" gradientUnits="userSpaceOnUse">
<stop stop-color="#95B6F6"/>
<stop offset="1" stop-color="#5193DE"/>
</linearGradient>
</defs>
</svg>
