<svg width="19" height="16" viewBox="0 0 19 16" fill="none" xmlns="http://www.w3.org/2000/svg">
<path fill-rule="evenodd" clip-rule="evenodd" d="M6.63613 0V2.43513H8.63613V0H6.63613ZM19.0001 10.3639H16.5649L16.5649 12.3639H19.0001V10.3639ZM14.8687 6.03351L16.9776 4.81594L17.9776 6.54799L15.8687 7.76556L14.8687 6.03351ZM12.4521 1.02245L11.2346 3.13133L12.9666 4.13133L14.1842 2.02245L12.4521 1.02245ZM2.3057 4.13133L1.08813 2.02245L2.82019 1.02245L4.03775 3.13133L2.3057 4.13133ZM13.1536 11.3638C13.1536 12.5604 12.7766 13.6689 12.1351 14.5772C12.8565 14.632 13.5431 14.8111 14.1736 15.0931C14.7974 13.9922 15.1536 12.7196 15.1536 11.3638C15.1536 7.17971 11.7617 3.78784 7.57761 3.78784C4.57314 3.78784 1.97716 5.53678 0.752197 8.07211L0.760997 8.0721C1.49895 8.0721 2.21698 8.15743 2.90575 8.31877C3.90101 6.79489 5.6217 5.78784 7.57761 5.78784C10.6571 5.78784 13.1536 8.28428 13.1536 11.3638Z" fill="url(#paint0_linear_141_1562)"/>
<defs>
<linearGradient id="paint0_linear_141_1562" x1="9.87613" y1="0" x2="9.87613" y2="15.0931" gradientUnits="userSpaceOnUse">
<stop stop-color="#EFC977"/>
<stop offset="1" stop-color="#E07256"/>
</linearGradient>
</defs>
</svg>
